<svg width="104" height="33" viewBox="0 0 104 33" fill="none" xmlns="http://www.w3.org/2000/svg">
<g clip-path="url(#clip0_1785_10)">
<path d="M1 17.2023H1.4658H19.6395V7.42969L1 17.2023Z" fill="#5AD6CD"/>
<path d="M38.2779 17.2031H37.8121H19.6396V26.9758L38.2779 17.2031Z" fill="#5AD6CD"/>
<path d="M50.1852 14.5861V16.2343H42.3281V14.931L47.3213 9.07667H42.4323V7.42969H50.0508V8.73659L45.04 14.591L50.1852 14.5861Z" fill="#3C3C3C"/>
<path d="M61.5702 7.42969L57.6668 16.2343H55.4683L51.5649 7.42969H53.7809L56.6096 13.9594L59.5249 7.42969H61.5702Z" fill="#3C3C3C"/>
<path d="M64.2457 15.7711C63.5267 15.4018 62.9291 14.8452 62.5206 14.1641C62.098 13.4552 61.8812 12.6491 61.8928 11.8309C61.8805 11.0149 62.0975 10.211 62.5206 9.50494C62.9322 8.8264 63.5314 8.27242 64.2507 7.90532C65.0247 7.52586 65.8802 7.32812 66.748 7.32812C67.6156 7.32812 68.4711 7.52586 69.2452 7.90532C69.9624 8.27352 70.5596 8.82734 70.9703 9.50494C71.3934 10.211 71.6104 11.0149 71.5981 11.8309C71.6097 12.6491 71.3928 13.4552 70.9703 14.1641C70.5601 14.8456 69.9607 15.4023 69.2402 15.7711C68.4661 16.1505 67.6106 16.3483 66.7429 16.3483C65.8752 16.3483 65.0197 16.1505 64.2457 15.7711ZM68.6777 13.8277C69.1891 13.3224 69.4448 12.6577 69.4448 11.8333C69.4448 11.009 69.1874 10.343 68.6726 9.83531C68.1526 9.34844 67.4572 9.07625 66.7335 9.07625C66.0097 9.07625 65.3144 9.34844 64.7943 9.83531C64.2921 10.3406 64.041 11.0058 64.041 11.8309C64.041 12.656 64.2921 13.3208 64.7943 13.8252C65.3144 14.3121 66.0097 14.5843 66.7335 14.5843C67.4572 14.5843 68.1526 14.3121 68.6726 13.8252L68.6777 13.8277Z" fill="#3C3C3C"/>
<path d="M81.0138 8.30158C81.7064 8.94937 82.0536 9.91133 82.0543 11.1875V16.2329H79.9199V11.451C79.9199 10.6826 79.7327 10.1028 79.3574 9.71173C78.9821 9.32063 78.4485 9.12549 77.7551 9.1263C76.9711 9.1263 76.3517 9.35424 75.8972 9.81012C75.4427 10.266 75.2154 10.9231 75.2154 11.7814V16.2329H73.0811V7.4283H75.1087V8.56515C75.4683 8.15483 75.9278 7.83759 76.4458 7.64206C77.0215 7.42571 77.6348 7.31929 78.2529 7.3287C79.3993 7.3287 80.3195 7.65299 81.0138 8.30158Z" fill="#3C3C3C"/>
<path d="M87.6841 12.4584L86.0985 13.916V16.2407H83.9641V4H86.0985V11.3872L90.5188 7.43001H93.0764L89.2635 11.1236L93.4227 16.2346H90.8369L87.6841 12.4584Z" fill="#3C3C3C"/>
<path d="M95.6536 15.7711C94.9328 15.4026 94.3337 14.8458 93.9234 14.1641C93.501 13.4552 93.284 12.6491 93.2962 11.8309C93.2833 11.0149 93.5002 10.211 93.9234 9.50494C94.3352 8.8264 94.9343 8.27242 95.6536 7.90532C96.4278 7.52586 97.2833 7.32812 98.1511 7.32812C99.0189 7.32812 99.8744 7.52586 100.649 7.90532C101.367 8.27279 101.966 8.82668 102.378 9.50494C102.799 10.2116 103.014 11.0155 103 11.8309C103.014 12.6486 102.799 13.4546 102.378 14.1641C101.968 14.8456 101.369 15.4023 100.649 15.7711C99.8744 16.1505 99.0189 16.3483 98.1511 16.3483C97.2833 16.3483 96.4278 16.1505 95.6536 15.7711ZM100.086 13.8277C100.596 13.3224 100.852 12.6577 100.853 11.8333C100.854 11.009 100.598 10.343 100.086 9.83531C99.5654 9.34844 98.8704 9.07625 98.1465 9.07625C97.4226 9.07625 96.7277 9.34844 96.2078 9.83531C95.7054 10.3406 95.4542 11.0058 95.4542 11.8309C95.4542 12.656 95.7054 13.3208 96.2078 13.8252C96.7277 14.3121 97.4226 14.5843 98.1465 14.5843C98.8704 14.5843 99.5654 14.3121 100.086 13.8252V13.8277Z" fill="#3C3C3C"/>
<path d="M48.2303 19.5V26.9734H46.981V26.2786C46.7689 26.5314 46.4948 26.7289 46.1837 26.8531C45.8517 26.9834 45.4961 27.0483 45.1379 27.0439C44.6348 27.0512 44.1381 26.9337 43.6953 26.7025C43.2717 26.4777 42.9232 26.1406 42.6909 25.7308C42.4508 25.2853 42.3254 24.7903 42.3254 24.2879C42.3254 23.7855 42.4508 23.2905 42.6909 22.845C42.9236 22.4355 43.272 22.0985 43.6953 21.8733C44.1378 21.6411 44.6346 21.5232 45.1379 21.5308C45.4817 21.5276 45.8227 21.589 46.1423 21.7117C46.4438 21.8302 46.7116 22.0168 46.9232 22.2559V19.5H48.2303ZM46.1373 25.76C46.3882 25.6211 46.5938 25.417 46.7312 25.1709C46.8748 24.896 46.9496 24.5923 46.9496 24.2842C46.9496 23.9762 46.8748 23.6725 46.7312 23.3976C46.5938 23.1515 46.3882 22.9474 46.1373 22.8086C45.8782 22.673 45.5881 22.602 45.2936 22.602C44.999 22.602 44.709 22.673 44.4499 22.8086C44.199 22.9472 43.9937 23.1513 43.8573 23.3976C43.7128 23.6723 43.6375 23.9761 43.6375 24.2842C43.6375 24.5924 43.7128 24.8962 43.8573 25.1709C43.9937 25.4172 44.199 25.6214 44.4499 25.76C44.709 25.8955 44.999 25.9665 45.2936 25.9665C45.5881 25.9665 45.8782 25.8955 46.1373 25.76Z" fill="#3C3C3C"/>
<path d="M51.2397 21.5938H49.9377V26.9732H51.2397V21.5938Z" fill="#3C3C3C"/>
<path d="M58.4654 21.6001V26.1633C58.4654 28.0564 57.466 29.003 55.4672 29.003C54.9535 29.0056 54.4418 28.9398 53.9467 28.8075C53.5142 28.6993 53.1098 28.5053 52.759 28.2379L53.3428 27.2904C53.6165 27.5018 53.9292 27.661 54.2643 27.7593C54.6289 27.876 55.0104 27.9354 55.3943 27.9354C56.0062 27.9354 56.454 27.8014 56.7377 27.5334C57.0215 27.2654 57.1638 26.8556 57.1646 26.3042V26.0224C56.9404 26.2588 56.6622 26.4413 56.3523 26.5556C56.017 26.6796 55.6603 26.741 55.3014 26.7366C54.8033 26.7439 54.3111 26.6316 53.8689 26.4098C53.4524 26.1983 53.1047 25.8792 52.8645 25.488C52.6139 25.0762 52.4862 24.6054 52.4953 24.1276C52.4824 23.6529 52.6063 23.1839 52.8531 22.7734C53.0938 22.385 53.4417 22.0691 53.8575 21.8612C54.3009 21.6429 54.7927 21.5324 55.2901 21.5394C55.6656 21.5348 56.0385 21.6 56.3887 21.7313C56.7116 21.8542 56.9966 22.0554 57.2161 22.3154V21.6001H58.4654ZM56.7076 25.2438C56.864 25.1016 56.9871 24.9285 57.0687 24.7365C57.1504 24.5444 57.1886 24.3376 57.1809 24.1301C57.1875 23.9257 57.1486 23.7224 57.0669 23.5338C56.9852 23.3452 56.8627 23.1758 56.7076 23.0369C56.3644 22.7636 55.9337 22.6141 55.4892 22.6141C55.0445 22.6141 54.6139 22.7636 54.2706 23.0369C54.1154 23.1757 53.9927 23.3451 53.911 23.5337C53.8294 23.7223 53.7906 23.9257 53.7973 24.1301C53.7896 24.3376 53.8279 24.5444 53.9095 24.7365C53.9911 24.9285 54.1143 25.1016 54.2706 25.2438C54.6125 25.5201 55.0437 25.6713 55.4892 25.6713C55.9345 25.6713 56.3658 25.5201 56.7076 25.2438Z" fill="#3C3C3C"/>
<path d="M61.4749 21.5938H60.1729V26.9732H61.4749V21.5938Z" fill="#3C3C3C"/>
<path d="M66.5247 26.6821C66.3598 26.8083 66.1701 26.9009 65.9672 26.9541C65.7421 27.0153 65.5093 27.0456 65.2754 27.0441C64.6636 27.0441 64.1915 26.8897 63.8592 26.5812C63.5269 26.2728 63.3595 25.8229 63.357 25.2319V22.6423H62.4404V21.6354H63.357V20.4062H64.6552V21.6354H66.1493V22.6423H64.6552V25.2015C64.6398 25.4183 64.7108 25.6325 64.8536 25.8003C64.9282 25.8722 65.018 25.9278 65.1168 25.9634C65.2155 25.999 65.3209 26.0138 65.4261 26.0068C65.6882 26.0157 65.9456 25.9377 66.1555 25.7857L66.5247 26.6821Z" fill="#3C3C3C"/>
<path d="M71.6005 22.1088C72.0333 22.4878 72.25 23.0603 72.2509 23.8263V26.9782H71.023V26.3235C70.8555 26.5647 70.6178 26.7524 70.34 26.8627C70.0011 26.9946 69.6379 27.0578 69.2728 27.0485C68.8971 27.0568 68.5241 26.9863 68.1792 26.8421C67.8873 26.7205 67.6366 26.5219 67.456 26.2688C67.2871 26.0225 67.1994 25.7323 67.2049 25.4368C67.1972 25.2144 67.2437 24.9933 67.3406 24.7914C67.4374 24.5895 67.5819 24.4124 67.7623 24.2744C68.1324 23.9821 68.7183 23.836 69.5201 23.836H70.9577V23.7558C70.9577 23.3793 70.8414 23.0902 70.6087 22.8886C70.3751 22.6869 70.0299 22.5874 69.5728 22.5874C69.2599 22.5869 68.9489 22.6345 68.6513 22.7282C68.3722 22.81 68.1121 22.9432 67.8854 23.1206L67.3757 22.2035C67.6912 21.9773 68.0476 21.81 68.4266 21.7104C68.85 21.5944 69.2884 21.5367 69.7285 21.5391C70.5421 21.5391 71.1661 21.7291 71.6005 22.1088ZM70.4128 25.9153C70.6622 25.7771 70.8526 25.5575 70.9502 25.2959V24.6716H69.6067C68.8534 24.6716 68.4768 24.91 68.4768 25.387C68.4736 25.4931 68.4977 25.5983 68.5468 25.6932C68.5959 25.7882 68.6684 25.8699 68.758 25.9311C68.9892 26.0778 69.263 26.1485 69.539 26.1328C69.8453 26.139 70.1475 26.0638 70.4128 25.9153Z" fill="#3C3C3C"/>
<path d="M73.917 19.5H75.2189V26.9734H73.917V19.5Z" fill="#3C3C3C"/>
<path d="M51.2399 19.5H49.9417V20.7558H51.2399V19.5Z" fill="#3C3C3C"/>
<path d="M61.4723 19.5H60.1741V20.7558H61.4723V19.5Z" fill="#3C3C3C"/>
</g>
<defs>
<clipPath id="clip0_1785_10">
<rect width="102" height="25" fill="white" transform="translate(1 4)"/>
</clipPath>
</defs>
</svg>
