<svg width="21" height="21" viewBox="0 0 21 21" fill="none" xmlns="http://www.w3.org/2000/svg">
<g clip-path="url(#clip0_1785_13)">
<path d="M20.4829 16.3966L20.3829 16.0876C20.2272 15.6974 19.9884 15.3458 19.6831 15.0572C19.3778 14.7687 19.0133 14.5501 18.6149 14.4166L15.9149 13.6786C15.5087 13.5907 15.0874 13.5997 14.6852 13.7048C14.2831 13.8099 13.9113 14.0082 13.5999 14.2836L12.6219 15.2616C10.8739 14.7877 9.28037 13.8645 7.99971 12.5838C6.71904 11.3032 5.79586 9.70962 5.32193 7.9616L6.29993 6.9836C6.57544 6.67138 6.77336 6.29854 6.87762 5.89541C6.98188 5.49228 6.98952 5.07024 6.89993 4.6636L6.16293 1.9636C6.029 1.56484 5.80963 1.20013 5.52015 0.894932C5.23067 0.589734 4.87806 0.351408 4.48693 0.196598L4.17793 0.0965983C3.78294 -0.0126651 3.36686 -0.0212216 2.96771 0.0717104C2.56856 0.164642 2.19905 0.356101 1.89293 0.628598L0.429934 2.0966C0.220925 2.39769 0.0746856 2.73778 -6.58194e-05 3.0966C-0.0266422 5.39475 0.405712 7.6751 1.27166 9.80403C2.13762 11.933 3.41975 13.8677 5.04294 15.4948C6.66613 17.1219 8.59774 18.4087 10.7246 19.2797C12.8514 20.1508 15.1307 20.5886 17.4289 20.5676C17.8052 20.5014 18.1634 20.3565 18.4799 20.1426L19.9429 18.6796C20.2165 18.3745 20.4092 18.0056 20.5035 17.6068C20.5979 17.208 20.5908 16.792 20.4829 16.3966Z" fill="#DC3545"/>
</g>
<defs>
<clipPath id="clip0_1785_13">
<rect width="20.575" height="20.571" fill="white"/>
</clipPath>
</defs>
</svg>
