<svg width="24" height="18" viewBox="0 0 24 18" fill="none" xmlns="http://www.w3.org/2000/svg">
<g clip-path="url(#clip0_1785_24)">
<path d="M22.274 17.143H1.726C1.28666 17.1437 0.863457 16.9775 0.542 16.678L9.031 9.40001L12 12L14.969 9.40001L23.453 16.677C23.1337 16.9769 22.712 17.1436 22.274 17.143ZM24 15.747L15.715 8.70701L24 1.50001V15.747ZM0 15.747V1.50001L8.285 8.70001L0 15.745V15.747ZM12 10.286L0.545 0.468007C0.864469 0.166933 1.28702 -0.000512102 1.726 7.08649e-06H22.274C22.7133 -0.00124944 23.1366 0.164635 23.458 0.464007L12 10.285V10.286Z" fill="#DC3545"/>
</g>
<defs>
<clipPath id="clip0_1785_24">
<rect width="24" height="17.143" fill="white"/>
</clipPath>
</defs>
</svg>
