<svg width="21" height="21" viewBox="0 0 21 21" fill="none" xmlns="http://www.w3.org/2000/svg">
<g clip-path="url(#clip0_1785_110)">
<path d="M10.4141 16.7141L16.7141 10.4141L19.4141 13.1141L13.1141 19.4141L10.4141 16.7141Z" stroke="#DC3545" stroke-width="2" stroke-linecap="round" stroke-linejoin="round"/>
<path d="M15.8141 11.3141L14.4641 4.56406L1.41406 1.41406L4.56406 14.4641L11.3141 15.8141L15.8141 11.3141Z" stroke="#DC3545" stroke-width="2" stroke-linecap="round" stroke-linejoin="round"/>
<path d="M1.41406 1.41406L8.24106 8.24106" stroke="#DC3545" stroke-width="2" stroke-linecap="round" stroke-linejoin="round"/>
<path d="M11.3141 9.51094C11.3141 9.86694 11.2085 10.215 11.0108 10.511C10.813 10.807 10.5318 11.0377 10.2029 11.1739C9.87404 11.3102 9.51211 11.3458 9.16295 11.2764C8.81378 11.2069 8.49305 11.0355 8.24132 10.7837C7.98958 10.532 7.81815 10.2113 7.7487 9.8621C7.67925 9.51293 7.71489 9.15101 7.85113 8.82211C7.98737 8.4932 8.21808 8.21208 8.51409 8.01429C8.81009 7.81651 9.15811 7.71094 9.51411 7.71094C9.9915 7.71094 10.4493 7.90058 10.7869 8.23814C11.1245 8.57571 11.3141 9.03355 11.3141 9.51094Z" stroke="#DC3545" stroke-width="2" stroke-linecap="round" stroke-linejoin="round"/>
</g>
<defs>
<clipPath id="clip0_1785_110">
<rect width="20.414" height="20.414" fill="white"/>
</clipPath>
</defs>
</svg>
