<svg width="18" height="24" viewBox="0 0 18 24" fill="none" xmlns="http://www.w3.org/2000/svg">
<g clip-path="url(#clip0_1785_123)">
<path d="M8.57207 24.001C8.22565 24.0089 7.88337 23.9243 7.58052 23.7559C7.27766 23.5875 7.02518 23.3414 6.84907 23.043L1.26307 13.259C0.462057 11.862 0.0275709 10.2851 7.49608e-05 8.67498C-0.00946806 6.37823 0.892503 4.17149 2.50807 2.53898C3.30001 1.73485 4.24398 1.09625 5.28504 0.660364C6.32609 0.224476 7.44345 0 8.57207 0C9.7007 0 10.8181 0.224476 11.8591 0.660364C12.9002 1.09625 13.8441 1.73485 14.6361 2.53898C16.252 4.17362 17.1536 6.38246 17.1431 8.68098C17.1216 10.2921 16.6863 11.8706 15.8791 13.265L10.2941 23.044C10.1149 23.3393 9.86183 23.5828 9.55988 23.7507C9.25794 23.9185 8.9175 24.0047 8.57207 24.001ZM8.57207 4.90098C7.94418 4.89325 7.32817 5.07235 6.80229 5.41552C6.27642 5.75869 5.86444 6.25044 5.61869 6.82829C5.37293 7.40615 5.30451 8.04401 5.42211 8.66084C5.53971 9.27767 5.83802 9.84562 6.27914 10.2925C6.72025 10.7394 7.28427 11.0451 7.89952 11.1707C8.51476 11.2963 9.15346 11.2362 9.73447 10.998C10.3155 10.7598 10.8125 10.3543 11.1625 9.83291C11.5125 9.31155 11.6996 8.69792 11.7001 8.06998C11.7049 7.23514 11.3782 6.43252 10.7917 5.83836C10.2052 5.24419 9.40691 4.90706 8.57207 4.90098Z" fill="#DC3545"/>
</g>
<defs>
<clipPath id="clip0_1785_123">
<rect width="17.143" height="24" fill="white"/>
</clipPath>
</defs>
</svg>
