<svg width="343" height="98" viewBox="0 0 343 98" fill="none" xmlns="http://www.w3.org/2000/svg">
<path d="M78.5249 32.6247L50.3558 48.8882" stroke="#EEEEEE" stroke-width="2" stroke-linecap="round"/>
<path d="M86.8994 32.2782L52.6066 52.0772" stroke="#EEEEEE" stroke-width="3" stroke-linecap="round"/>
<path d="M57.3579 65.2581L85.5271 48.9946" stroke="#EEEEEE" stroke-width="2" stroke-linecap="round"/>
<path d="M61.0917 66.7755L96.6093 46.2694" stroke="#EEEEEE" stroke-linecap="round"/>
<path d="M39.2733 51.6114L74.7909 31.1053" stroke="#EEEEEE" stroke-linecap="round"/>
<path d="M48.9834 65.6007L83.2762 45.8017" stroke="#EEEEEE" stroke-width="3" stroke-linecap="round"/>
<path d="M82.6377 40.454L48.3449 60.253" stroke="#EEEEEE" stroke-width="4" stroke-linecap="round"/>
<path d="M122.633 62.432C120.641 62.432 118.709 62.168 116.837 61.64C114.989 61.088 113.501 60.38 112.373 59.516L114.353 55.124C115.433 55.916 116.717 56.552 118.205 57.032C119.693 57.512 121.181 57.752 122.669 57.752C124.325 57.752 125.549 57.512 126.341 57.032C127.133 56.528 127.529 55.868 127.529 55.052C127.529 54.452 127.289 53.96 126.809 53.576C126.353 53.168 125.753 52.844 125.009 52.604C124.289 52.364 123.305 52.1 122.057 51.812C120.137 51.356 118.565 50.9 117.341 50.444C116.117 49.988 115.061 49.256 114.173 48.248C113.309 47.24 112.877 45.896 112.877 44.216C112.877 42.752 113.273 41.432 114.065 40.256C114.857 39.056 116.045 38.108 117.629 37.412C119.237 36.716 121.193 36.368 123.497 36.368C125.105 36.368 126.677 36.56 128.213 36.944C129.749 37.328 131.093 37.88 132.245 38.6L130.445 43.028C128.117 41.708 125.789 41.048 123.461 41.048C121.829 41.048 120.617 41.312 119.825 41.84C119.057 42.368 118.673 43.064 118.673 43.928C118.673 44.792 119.117 45.44 120.005 45.872C120.917 46.28 122.297 46.688 124.145 47.096C126.065 47.552 127.637 48.008 128.861 48.464C130.085 48.92 131.129 49.64 131.993 50.624C132.881 51.608 133.325 52.94 133.325 54.62C133.325 56.06 132.917 57.38 132.101 58.58C131.309 59.756 130.109 60.692 128.501 61.388C126.893 62.084 124.937 62.432 122.633 62.432ZM143.862 62.288C141.678 62.288 139.974 61.712 138.75 60.56C137.526 59.384 136.914 57.728 136.914 55.592V35.288H142.53V55.268C142.53 56.084 142.734 56.72 143.142 57.176C143.574 57.608 144.174 57.824 144.942 57.824C145.23 57.824 145.518 57.788 145.806 57.716C146.118 57.644 146.358 57.56 146.526 57.464L146.778 61.82C145.842 62.132 144.87 62.288 143.862 62.288ZM168.84 42.632V62H163.476V59.768C162.084 61.448 160.068 62.288 157.428 62.288C155.604 62.288 153.948 61.88 152.46 61.064C150.996 60.248 149.844 59.084 149.004 57.572C148.164 56.06 147.744 54.308 147.744 52.316C147.744 50.324 148.164 48.572 149.004 47.06C149.844 45.548 150.996 44.384 152.46 43.568C153.948 42.752 155.604 42.344 157.428 42.344C159.9 42.344 161.832 43.124 163.224 44.684V42.632H168.84ZM158.4 57.68C159.816 57.68 160.992 57.2 161.928 56.24C162.864 55.256 163.332 53.948 163.332 52.316C163.332 50.684 162.864 49.388 161.928 48.428C160.992 47.444 159.816 46.952 158.4 46.952C156.96 46.952 155.772 47.444 154.836 48.428C153.9 49.388 153.432 50.684 153.432 52.316C153.432 53.948 153.9 55.256 154.836 56.24C155.772 57.2 156.96 57.68 158.4 57.68ZM185.487 42.344C187.287 42.344 188.919 42.764 190.383 43.604C191.871 44.42 193.035 45.584 193.875 47.096C194.715 48.584 195.135 50.324 195.135 52.316C195.135 54.308 194.715 56.06 193.875 57.572C193.035 59.06 191.871 60.224 190.383 61.064C188.919 61.88 187.287 62.288 185.487 62.288C182.823 62.288 180.795 61.448 179.403 59.768V62H174.039V35.288H179.655V44.684C181.071 43.124 183.015 42.344 185.487 42.344ZM184.515 57.68C185.955 57.68 187.131 57.2 188.043 56.24C188.979 55.256 189.447 53.948 189.447 52.316C189.447 50.684 188.979 49.388 188.043 48.428C187.131 47.444 185.955 46.952 184.515 46.952C183.075 46.952 181.887 47.444 180.951 48.428C180.039 49.388 179.583 50.684 179.583 52.316C179.583 53.948 180.039 55.256 180.951 56.24C181.887 57.2 183.075 57.68 184.515 57.68ZM208.651 57.788C209.659 57.788 210.547 57.644 211.315 57.356C212.107 57.044 212.839 56.564 213.511 55.916L216.499 59.156C214.675 61.244 212.011 62.288 208.507 62.288C206.323 62.288 204.391 61.868 202.711 61.028C201.031 60.164 199.735 58.976 198.823 57.464C197.911 55.952 197.455 54.236 197.455 52.316C197.455 50.42 197.899 48.716 198.787 47.204C199.699 45.668 200.935 44.48 202.495 43.64C204.079 42.776 205.855 42.344 207.823 42.344C209.671 42.344 211.351 42.74 212.863 43.532C214.375 44.3 215.575 45.428 216.463 46.916C217.375 48.38 217.831 50.12 217.831 52.136L203.503 54.908C203.911 55.868 204.547 56.588 205.411 57.068C206.299 57.548 207.379 57.788 208.651 57.788ZM207.823 46.592C206.407 46.592 205.255 47.048 204.367 47.96C203.479 48.872 203.011 50.132 202.963 51.74L212.395 49.904C212.131 48.896 211.591 48.092 210.775 47.492C209.959 46.892 208.975 46.592 207.823 46.592ZM228.554 62.288C226.37 62.288 224.666 61.712 223.442 60.56C222.218 59.384 221.606 57.728 221.606 55.592V35.288H227.222V55.268C227.222 56.084 227.426 56.72 227.834 57.176C228.266 57.608 228.866 57.824 229.634 57.824C229.922 57.824 230.21 57.788 230.498 57.716C230.81 57.644 231.05 57.56 231.218 57.464L231.47 61.82C230.534 62.132 229.562 62.288 228.554 62.288Z" fill="#EEEEEE"/>
</svg>
